<svg width="30" height="30" viewBox="0 0 30 30" fill="none" xmlns="http://www.w3.org/2000/svg">
<path d="M21.675 6.825C21.3783 6.825 21.0883 6.91297 20.8416 7.0778C20.595 7.24262 20.4027 7.47689 20.2892 7.75097C20.1756 8.02506 20.1459 8.32666 20.2038 8.61763C20.2617 8.90861 20.4046 9.17588 20.6143 9.38566C20.8241 9.59544 21.0914 9.7383 21.3824 9.79618C21.6733 9.85405 21.9749 9.82435 22.249 9.71082C22.5231 9.59729 22.7574 9.40503 22.9222 9.15835C23.087 8.91168 23.175 8.62167 23.175 8.325C23.175 7.92717 23.017 7.54564 22.7357 7.26434C22.4544 6.98303 22.0728 6.825 21.675 6.825ZM27.425 9.85C27.4005 8.8129 27.2062 7.78681 26.85 6.8125C26.5336 5.97818 26.0387 5.22308 25.4 4.6C24.781 3.95928 24.0244 3.46772 23.1875 3.1625C22.2158 2.7952 21.1886 2.59651 20.15 2.575C18.825 2.5 18.4 2.5 15 2.5C11.6 2.5 11.175 2.5 9.85 2.575C8.81144 2.59651 7.78418 2.7952 6.8125 3.1625C5.97747 3.47157 5.2217 3.9626 4.6 4.6C3.95928 5.21897 3.46772 5.97555 3.1625 6.8125C2.7952 7.78418 2.59651 8.81144 2.575 9.85C2.5 11.175 2.5 11.6 2.5 15C2.5 18.4 2.5 18.825 2.575 20.15C2.59651 21.1886 2.7952 22.2158 3.1625 23.1875C3.46772 24.0244 3.95928 24.781 4.6 25.4C5.2217 26.0374 5.97747 26.5284 6.8125 26.8375C7.78418 27.2048 8.81144 27.4035 9.85 27.425C11.175 27.5 11.6 27.5 15 27.5C18.4 27.5 18.825 27.5 20.15 27.425C21.1886 27.4035 22.2158 27.2048 23.1875 26.8375C24.0244 26.5323 24.781 26.0407 25.4 25.4C26.0403 24.7782 26.5354 24.0227 26.85 23.1875C27.2062 22.2132 27.4005 21.1871 27.425 20.15C27.425 18.825 27.5 18.4 27.5 15C27.5 11.6 27.5 11.175 27.425 9.85ZM25.175 20C25.1661 20.7935 25.0224 21.5797 24.75 22.325C24.5504 22.869 24.2298 23.3605 23.8125 23.7625C23.4068 24.1753 22.9163 24.4952 22.375 24.7C21.6297 24.9724 20.8435 25.1161 20.05 25.125C18.8 25.1875 18.3375 25.2 15.05 25.2C11.7625 25.2 11.3 25.2 10.05 25.125C9.22606 25.1412 8.40556 25.0143 7.625 24.75C7.10773 24.5342 6.63988 24.2152 6.25 23.8125C5.83511 23.4109 5.51855 22.919 5.325 22.375C5.01881 21.6192 4.8495 20.8151 4.825 20C4.825 18.75 4.75 18.2875 4.75 15C4.75 11.7125 4.75 11.25 4.825 10C4.82956 9.18872 4.97768 8.38465 5.2625 7.625C5.48256 7.09739 5.82033 6.62707 6.25 6.25C6.62865 5.81899 7.09829 5.47743 7.625 5.25C8.38675 4.97435 9.18993 4.83062 10 4.825C11.25 4.825 11.7125 4.75 15 4.75C18.2875 4.75 18.75 4.75 20 4.825C20.7935 4.83386 21.5797 4.97757 22.325 5.25C22.893 5.46082 23.4029 5.80356 23.8125 6.25C24.2209 6.63503 24.5408 7.10418 24.75 7.625C25.0281 8.3861 25.1719 9.1897 25.175 10C25.2375 11.25 25.25 11.7125 25.25 15C25.25 18.2875 25.2375 18.75 25.175 20ZM15 8.5875C13.7323 8.58997 12.4937 8.96816 11.4408 9.67427C10.3879 10.3804 9.56797 11.3827 9.08454 12.5547C8.60111 13.7266 8.4759 15.0156 8.72474 16.2587C8.97358 17.5017 9.58529 18.6432 10.4826 19.5387C11.3799 20.4343 12.5225 21.0438 13.7661 21.2902C15.0096 21.5366 16.2983 21.4089 17.4693 20.9232C18.6403 20.4375 19.6411 19.6155 20.3452 18.5613C21.0492 17.507 21.425 16.2677 21.425 15C21.4267 14.1564 21.2615 13.3208 20.939 12.5412C20.6166 11.7616 20.1432 11.0535 19.5461 10.4576C18.949 9.86161 18.2399 9.3896 17.4597 9.06866C16.6796 8.74772 15.8436 8.5842 15 8.5875ZM15 19.1625C14.1767 19.1625 13.372 18.9184 12.6874 18.461C12.0029 18.0036 11.4694 17.3535 11.1544 16.5929C10.8393 15.8323 10.7569 14.9954 10.9175 14.1879C11.0781 13.3805 11.4745 12.6388 12.0567 12.0567C12.6388 11.4745 13.3805 11.0781 14.1879 10.9175C14.9954 10.7569 15.8323 10.8393 16.5929 11.1544C17.3535 11.4694 18.0036 12.0029 18.461 12.6874C18.9184 13.372 19.1625 14.1767 19.1625 15C19.1625 15.5466 19.0548 16.0879 18.8456 16.5929C18.6365 17.0979 18.3299 17.5568 17.9433 17.9433C17.5568 18.3299 17.0979 18.6365 16.5929 18.8456C16.0879 19.0548 15.5466 19.1625 15 19.1625Z" fill="white"/>
</svg>
